<svg width="32" height="32" viewBox="0 0 32 32" fill="none" xmlns="http://www.w3.org/2000/svg">
<path d="M16 0C24.8366 0 32 7.16347 32 16C32 24.8365 24.8365 32 16 32C7.16346 32 2.78337e-05 24.8365 0 16C0 7.16347 7.16344 0 16 0ZM17.3594 6.66797C17.3594 6.2356 16.804 6.05734 16.5527 6.40918L8.97266 17.0225C8.76254 17.3167 8.9725 17.7246 9.33398 17.7246H13.8037V25.2266C13.8037 25.6588 14.3579 25.8369 14.6094 25.4854L22.1904 14.8721C22.4004 14.5779 22.1905 14.17 21.8291 14.1699H17.3594V6.66797Z" fill="#1C1C1C"/>
</svg>
